<?xml version="1.0" encoding="UTF-8"?>
<svg width="17px" height="17px" viewBox="0 0 17 17" version="1.1" xmlns="http://www.w3.org/2000/svg" xmlns:xlink="http://www.w3.org/1999/xlink">
    <!-- Generator: Sketch 43.1 (39012) - http://www.bohemiancoding.com/sketch -->
    <title>Telepnone</title>
    <desc>Created with Sketch.</desc>
    <defs></defs>
    <g id="Designs" stroke="none" stroke-width="1" fill="none" fill-rule="evenodd">
        <g id="M_test" transform="translate(-152.000000, -262.000000)" fill="#23bf0f">
            <g id="Group" transform="translate(0.000000, 250.000000)">
                <g id="Top-elements-Copy">
                    <g id="Group-2-Copy-2" transform="translate(145.000000, 5.000000)">
                        <path d="M23.2895742,19.8710526 C23.3239163,20.1315789 23.2437847,20.3605263 23.0495742,20.5578947 L20.7695742,22.8197368 C20.6669426,22.9342105 20.5327321,23.0289474 20.3669426,23.1078947 C20.2011531,23.1907895 20.0381268,23.2421053 19.8782584,23.2657895 C19.866811,23.2657895 19.8324689,23.2657895 19.7756268,23.2736842 C19.71839,23.2776316 19.6441795,23.2815789 19.5526005,23.2815789 C19.3354953,23.2815789 18.9841795,23.2421053 18.4986531,23.1710526 C18.0127321,23.0960526 17.4186531,22.9144737 16.7156268,22.6223684 C16.0129953,22.3302632 15.2160216,21.8921053 14.3247058,21.3118421 C13.43339,20.7276316 12.4848374,19.9263158 11.4790479,18.9118421 C10.679311,18.1223684 10.0165479,17.3684211 9.49075841,16.65 C8.96496894,15.9276316 8.54220578,15.2644737 8.2220742,14.6526316 C7.90233736,14.0407895 7.66233736,13.4881579 7.50246894,12.9907895 C7.34220578,12.4934211 7.23365315,12.0631579 7.1764163,11.7039474 C7.1195742,11.3447368 7.09667946,11.0605263 7.10812683,10.8552632 C7.1195742,10.65 7.12510051,10.5355263 7.12510051,10.5118421 C7.14799525,10.3539474 7.19931104,10.1921053 7.27944262,10.0263158 C7.3595742,9.86052632 7.45667946,9.72631579 7.57075841,9.62368421 L9.85075841,7.34210526 C10.0106268,7.18421053 10.19339,7.10526316 10.3990479,7.10526316 C10.5478637,7.10526316 10.679311,7.14473684 10.79339,7.23157895 C10.9074689,7.31842105 11.0049689,7.425 11.0847058,7.54736842 L12.9190479,11.0289474 C13.0216795,11.2105263 13.0504953,11.4118421 13.0047058,11.6289474 C12.9589163,11.8460526 12.861811,12.0276316 12.71339,12.1776316 L11.87339,13.0144737 C11.8504953,13.0381579 11.8303637,13.0776316 11.81339,13.1289474 C11.7960216,13.1802632 11.7877321,13.2197368 11.7877321,13.2552632 C11.8331268,13.4960526 11.9361531,13.7684211 12.0960216,14.0802632 C12.23339,14.3526316 12.4449689,14.6881579 12.7303637,15.0828947 C13.0161531,15.4736842 13.4219426,15.9276316 13.9473374,16.4447368 C14.4616795,16.9697368 14.9187847,17.3763158 15.3186531,17.6684211 C15.7185216,17.9605263 16.0528637,18.1736842 16.3216795,18.3118421 C16.5901005,18.45 16.7957584,18.5328947 16.9386531,18.5605263 L17.1526005,18.6039474 C17.1754953,18.6039474 17.2126005,18.5921053 17.264311,18.5763158 C17.3156268,18.5605263 17.3527321,18.5407895 17.3756268,18.5171053 L18.3526005,17.5223684 C18.5586531,17.3407895 18.7982584,17.25 19.0726005,17.25 C19.266811,17.25 19.4211531,17.2815789 19.5352321,17.3526316 L19.5526005,17.3526316 L22.86089,19.3065789 C23.10089,19.4526316 23.2437847,19.6421053 23.2895742,19.8710526 Z" id="Telepnone"></path>
                    </g>
                </g>
            </g>
        </g>
    </g>
</svg>