
<?xml version="1.0" encoding="UTF-8" standalone="no"?>
<svg xmlns="http://www.w3.org/2000/svg" height="28" width="149" preserveAspectRatio="xMidYMid" xmlns:xlink="http://www.w3.org/1999/xlink" viewBox="0 0 149 28">
 <defs>
  <style>.cls-3 {
        fill: #888888;
      }
      .cls-4 {
        fill: #000000;
      }</style>
 </defs>
 <g id="grupa-1" fill-rule="evenodd">
  <path id="path-1" class="cls-3" d="m114.25 28v-4h35v4h-35zm0-16h35v4h-35v-4zm0-12h35v4h-35v-4z"/>
  <path id="path-2" class="cls-4" d="m91.01 21.833c-0.739 1.281-1.806 2.266-3.202 2.956-1.396 0.691-3.066 1.036-5.009 1.036-2.889 0-5.134-0.759-6.738-2.276-1.603-1.518-2.405-3.605-2.405-6.26v-14.891h3.823v14.622c0 1.908 0.446 3.314 1.338 4.221 0.892 0.906 2.262 1.359 4.109 1.359 3.589 0 5.384-1.87 5.384-5.611v-14.591h3.807v14.954c0 1.707-0.369 3.201-1.107 4.481zm-39.414-14.74h-0.127l0.079 1.028c0.149 1.96 0.223 3.751 0.223 5.374v12.014h-3.456v-23.111h4.619l11.42 18.321h0.096c-0.022-0.242-0.064-1.125-0.128-2.648-0.063-1.522-0.095-2.711-0.095-3.564v-12.109h3.488v23.111h-4.667l-11.452-18.416zm-21.487-4.695h13.173v3.194h-9.366v6.291h8.776v3.161h-8.776v7.256h9.366v3.209h-13.173v-23.111zm-9.795 11.682c0-1.148 0.029-2.645 0.087-4.489s0.109-2.961 0.152-3.351h-0.128l-6.992 19.269h-3.361l-6.753-19.301h-0.128c0.181 2.867 0.271 5.554 0.271 8.062v11.239h-3.456v-23.111h5.367l6.467 18.384h0.096l6.657-18.384h5.384v23.111h-3.663v-11.429z"/>
 </g>
</svg>
